<svg xmlns="http://www.w3.org/2000/svg" xmlns:xlink="http://www.w3.org/1999/xlink" x="0px" y="0px" viewBox="0 0 27.1 12.8" style="enable-background:new 0 0 27.1 12.8;" xml:space="preserve"><style type="text/css">	.WDT21{fill:#1A1A1A;}</style>	<g class="WDT20">		<path class="WDT21" d="M7.5,6.7c-0.7-1-0.6-2.3,0.3-3.1C7.9,3.5,8,3.4,8.1,3.3c0,0,0,0,0,0C8,3.2,8,3.2,7.9,3.1   C7.6,2.7,7.1,2.4,6.6,2.3C6.2,2.3,5.8,2.3,5.4,2.4C5.1,2.5,4.9,2.6,4.6,2.6C4.4,2.7,4.2,2.7,4,2.7c-0.1,0-0.3-0.1-0.4-0.1   c-0.3-0.1-0.7-0.2-1-0.2C2,2.3,1.3,2.5,0.9,3C0.4,3.5,0.1,4.1,0.1,4.7C-0.1,5.5,0,6.2,0.2,6.9c0.2,0.8,0.6,1.6,1.1,2.2   C1.5,9.4,1.7,9.7,2,9.9c0.3,0.2,0.6,0.3,0.9,0.2C3.1,10,3.3,10,3.5,9.9c0.3-0.1,0.5-0.2,0.8-0.2c0.2,0,0.5,0.1,0.7,0.1   C5.3,9.9,5.5,10,5.7,10c0.4,0.1,0.9,0,1.2-0.3C7,9.7,7.1,9.6,7.2,9.5C7.6,9,8,8.4,8.3,7.7c0-0.1,0.1-0.2,0.1-0.3c0,0-0.1,0-0.1,0   C7.9,7.2,7.7,7,7.5,6.7 M4.8,2.3C5,2.2,5.2,2.1,5.4,1.9c0.4-0.4,0.6-1,0.7-1.5c0-0.1,0-0.2,0-0.3C4.9,0.2,4,1.2,4.1,2.5   c0,0,0,0,0,0C4.3,2.5,4.5,2.4,4.8,2.3 M15.4,2.1c-0.7-0.5-1.5-0.8-2.4-0.7c-0.7,0-1.4,0.1-2.1,0.2V10H12V6.6   c0.3,0.1,0.6,0.1,0.9,0.1c1,0.1,1.9-0.3,2.6-0.9c0.5-0.5,0.7-1.1,0.7-1.8C16.2,3.2,15.9,2.6,15.4,2.1 M13,5.8   c-0.3,0-0.6,0-0.9-0.1V2.4c0.3-0.1,0.7-0.1,1-0.1c1.2,0,2,0.5,2,1.7C15.1,5.1,14.3,5.8,13,5.8 M25.9,3.9l-1.2,3.6   c-0.2,0.4-0.3,0.9-0.4,1.3h0c-0.1-0.4-0.3-0.8-0.4-1.3l-1.3-3.6h-1.2l2.3,5.6c0,0.1,0.1,0.2,0.1,0.3c0,0.1,0,0.2-0.1,0.3   c-0.2,0.5-0.5,0.9-0.9,1.2c-0.3,0.2-0.6,0.4-1,0.5l0.3,0.9c0.5-0.1,1-0.4,1.4-0.7c0.8-0.7,1.3-1.7,2.1-3.8l1.7-4.4L25.9,3.9z    M21.1,6.2c0-1.2-0.5-2.5-2.3-2.5c-0.7,0-1.4,0.2-2,0.5L17,5c0.5-0.3,1-0.5,1.6-0.5C19.3,4.5,19.9,5,20,5.7c0,0.1,0,0.2,0,0.3v0.1   c-2.4,0-3.7,0.8-3.7,2.3c0,1,0.8,1.7,1.7,1.8c0,0,0.1,0,0.1,0c0.7,0,1.4-0.3,1.9-0.9h0l0.1,0.8h1c-0.1-0.5-0.1-1-0.1-1.5V6.2z    M20,7.9c0,0.1,0,0.2-0.1,0.4c-0.2,0.6-0.8,1-1.5,1c-0.5,0-1-0.4-1-0.9c0,0,0-0.1,0-0.1c0-1.2,1.4-1.4,2.6-1.4L20,7.9z"></path>	</g></svg>