<svg xmlns="http://www.w3.org/2000/svg" xmlns:xlink="http://www.w3.org/1999/xlink" x="0px" y="0px" viewBox="0 0 21.9 13.5" style="enable-background:new 0 0 21.9 13.5;" xml:space="preserve"><style type="text/css">	.WDT41{fill:#EB001B;}	.WDT42{fill:#F79E1B;}	.WDT43{fill:#1A1A1A;}</style>	<g class="WDT40">		<path class="WDT41" d="M8.4,6.8c0-2.1,0.9-4,2.6-5.3C8-0.9,3.7-0.3,1.4,2.6s-1.8,7.2,1.1,9.5c1.2,0.9,2.7,1.4,4.2,1.4   c1.5,0,3-0.5,4.2-1.4C9.3,10.8,8.4,8.8,8.4,6.8"></path>		<path class="WDT42" d="M21.9,6.8c0,3.7-3,6.8-6.7,6.8c-1.5,0-3-0.5-4.2-1.4c2.9-2.3,3.4-6.6,1.1-9.5   c-0.3-0.4-0.7-0.8-1.1-1.1c2.9-2.3,7.2-1.8,9.5,1.1C21.4,3.8,21.9,5.2,21.9,6.8"></path>		<path class="WDT43" d="M4,7.7V6.6c0-0.4-0.2-0.7-0.6-0.7c0,0-0.1,0-0.1,0C3,5.9,2.8,6,2.6,6.2C2.5,6,2.3,5.9,2,5.9   C1.8,5.9,1.6,6,1.5,6.2V5.9H1.1v1.8h0.4v-1c0-0.3,0.2-0.5,0.4-0.5s0.4,0.2,0.4,0.5v1h0.4v-1c0-0.2,0.1-0.4,0.4-0.5c0,0,0,0,0.1,0   c0.3,0,0.4,0.2,0.4,0.5v1L4,7.7z M9.8,5.9H9.2V5.4H8.8v0.5H8.4v0.4h0.4v0.8c0,0.4,0.2,0.7,0.6,0.7c0.2,0,0.3,0,0.5-0.1L9.8,7.3   C9.7,7.4,9.6,7.4,9.4,7.4c-0.2,0-0.3-0.1-0.3-0.3V6.3h0.6L9.8,5.9z M13.2,5.9c-0.2,0-0.4,0.1-0.5,0.3V5.9h-0.4v1.8h0.4v-1   c0-0.3,0.1-0.5,0.4-0.5c0.1,0,0.2,0,0.2,0l0.1-0.4C13.3,5.9,13.3,5.9,13.2,5.9 M8.1,6.1C7.9,6,7.6,5.9,7.4,5.9   c-0.5,0-0.8,0.2-0.8,0.6C6.6,6.8,6.9,7,7.2,7l0.2,0c0.2,0,0.3,0.1,0.3,0.2c0,0.1-0.2,0.2-0.4,0.2c-0.2,0-0.4-0.1-0.6-0.2L6.6,7.6   c0.2,0.2,0.5,0.2,0.8,0.2c0.5,0,0.8-0.2,0.8-0.6c0-0.3-0.2-0.5-0.6-0.5l-0.2,0C7.2,6.6,7,6.6,7,6.5c0-0.1,0.1-0.2,0.3-0.2   c0.2,0,0.4,0.1,0.6,0.2L8.1,6.1z M18.6,5.9c-0.2,0-0.4,0.1-0.5,0.3V5.9h-0.4v1.8h0.4v-1c0-0.3,0.1-0.5,0.4-0.5c0.1,0,0.2,0,0.2,0   l0.1-0.4C18.8,5.9,18.7,5.9,18.6,5.9 M13.6,6.8c0,0.5,0.4,0.9,0.9,0.9c0,0,0.1,0,0.1,0c0.2,0,0.5-0.1,0.6-0.2L15,7.3   c-0.1,0.1-0.3,0.2-0.5,0.2c-0.3,0-0.5-0.2-0.5-0.5c0,0,0,0,0-0.1c0-0.3,0.2-0.6,0.5-0.6c0,0,0,0,0,0c0.2,0,0.3,0.1,0.5,0.2   l0.2-0.3C15,6,14.7,5.9,14.5,5.9C14,5.9,13.6,6.2,13.6,6.8C13.6,6.8,13.6,6.8,13.6,6.8 M17.2,6.8V5.9h-0.4v0.2   c-0.1-0.2-0.3-0.3-0.6-0.3c-0.5,0-0.9,0.5-0.9,1c0,0.5,0.4,0.9,0.9,0.9c0.2,0,0.4-0.1,0.6-0.3v0.2h0.4V6.8z M15.8,6.8   c0-0.3,0.2-0.6,0.5-0.6c0.3,0,0.6,0.2,0.6,0.5c0,0,0,0.1,0,0.1c0,0.3-0.2,0.6-0.5,0.6C16,7.4,15.8,7.2,15.8,6.8   C15.8,6.9,15.8,6.9,15.8,6.8 M11,5.9c-0.5,0-0.9,0.4-0.9,0.9c0,0.5,0.4,0.9,0.9,0.9c0.3,0,0.5-0.1,0.7-0.2l-0.2-0.3   c-0.2,0.1-0.3,0.2-0.5,0.2c-0.3,0-0.5-0.2-0.5-0.4h1.3V6.9c0.1-0.5-0.2-0.9-0.7-0.9C11.1,5.9,11.1,5.9,11,5.9 M11,6.2   c0.2,0,0.4,0.2,0.5,0.4c0,0,0,0,0,0h-0.9C10.6,6.4,10.8,6.2,11,6.2 M20.8,6.8V5.2h-0.4v0.9c-0.1-0.2-0.3-0.3-0.6-0.3   c-0.5,0-0.9,0.5-0.9,1c0,0.5,0.4,0.9,0.9,0.9c0.2,0,0.4-0.1,0.6-0.3v0.2h0.4V6.8z M19.4,6.8c0-0.3,0.2-0.6,0.5-0.6   c0.3,0,0.6,0.2,0.6,0.5c0,0,0,0.1,0,0.1c0,0.3-0.2,0.6-0.5,0.6C19.7,7.4,19.4,7.2,19.4,6.8C19.4,6.9,19.4,6.9,19.4,6.8 M6.2,6.8   V5.9H5.8v0.2C5.7,6,5.5,5.9,5.2,5.9c-0.5,0-0.9,0.5-0.9,1c0,0.5,0.4,0.9,0.9,0.9c0.2,0,0.4-0.1,0.6-0.3v0.2h0.4V6.8z M4.7,6.8   c0-0.3,0.2-0.6,0.5-0.6c0.3,0,0.6,0.2,0.6,0.5c0,0,0,0.1,0,0.1c0,0.3-0.2,0.6-0.5,0.6C5,7.4,4.8,7.2,4.7,6.8   C4.7,6.9,4.7,6.9,4.7,6.8"></path>	</g></svg>