<svg xmlns="http://www.w3.org/2000/svg" xmlns:xlink="http://www.w3.org/1999/xlink" x="0px" y="0px" viewBox="0 0 26.4 8.5" style="enable-background:new 0 0 26.4 8.5;" xml:space="preserve"><style type="text/css">	.WDT51{fill:#1A1F71;}</style>	<g class="WDT50">		<path class="WDT51" d="M13.1,0.2l-1.8,8.3H9.2L11,0.2H13.1z M22.1,5.5l1.1-3.1l0.6,3.1H22.1z M24.5,8.4h2l-1.7-8.3   h-1.8c-0.4,0-0.8,0.2-0.9,0.6l-3.2,7.7H21l0.4-1.2h2.7L24.5,8.4 M18.9,5.7c0-2.2-3-2.3-3-3.3c0-0.3,0.3-0.6,0.9-0.7   c0.7-0.1,1.5,0.1,2.1,0.4l0.4-1.7C18.6,0.1,18,0,17.3,0c-2.1,0-3.6,1.1-3.6,2.7c0,1.2,1.1,1.9,1.9,2.2c0.8,0.4,1.1,0.7,1.1,1   c0,0.6-0.7,0.8-1.3,0.8c-0.8,0-1.5-0.2-2.2-0.5l-0.4,1.8c0.8,0.3,1.6,0.4,2.4,0.4C17.4,8.5,18.9,7.4,18.9,5.7 M10,0.2L6.6,8.4H4.3   L2.6,1.8c0-0.3-0.2-0.6-0.5-0.7C1.4,0.8,0.7,0.5,0,0.4l0.1-0.2h3.6c0.5,0,0.9,0.4,1,0.8l0.9,4.8l2.2-5.6H10z"></path>	</g></svg>